<mxfile host="65bd71144e">
    <diagram id="qo1IGXUCIrmXoJxwt_jw" name="Page-1">
        <mxGraphModel dx="1027" dy="386" grid="1" gridSize="10" guides="1" tooltips="1" connect="1" arrows="1" fold="1" page="1" pageScale="1" pageWidth="850" pageHeight="1100" math="0" shadow="0">
            <root>
                <mxCell id="0"/>
                <mxCell id="1" parent="0"/>
                <mxCell id="2" value="" style="shape=image;verticalLabelPosition=bottom;labelBackgroundColor=default;verticalAlign=top;aspect=fixed;imageAspect=0;image=data:image/png,iVBORw0KGgoAAAANSUhEUgAAARkAAAC1CAYAAABruYs2AAAAAXNSR0IArs4c6QAAAARnQU1BAACxjwv8YQUAAAAJcEhZcwAADsMAAA7DAcdvqGQAAB+bSURBVHhe7d0LdFTVuQfw/7UqMA8ek0wIhklMABNKSJiKvIXwiGAX1GpMsV6UJq6CXMuqj/IoSxTFKkiL3mW9SHpJlFIrN8Vq4V6gAQQWENDQhFdDICSSIU1gkvCYTEC99d69z9kzcyaZhDOTOZMZ8v3WOqtn7zMzidb8Z+99zvnOv6Skjvw/EEKIRm4T/0sIIZqI3JFM7Crkj0wUDSdO7M3FW82i2YXGDMnHvGQ9akpmY0W96AyZ55G88kGYRKulLA/HthSKVjB8g4INx2DePxIzPxBdaMa2QgfKsgfgRdETiNfWlCDrbrbzZQqGLjLIneSW4PdIJir1IYyfnAmLTnR0iTlYwQKG/yHnbuNbqAJmAp7L2IwVsaIZZkzzWcBc2I7i5ZnSFtyA4UFwDGOaUhQBwxmwpaQFWRuakCN6/Da3jgVMHLZkj6SAuQX5ETIJSJn8EMyOarSIni5jGAgzqlEe8pHCzR0+mysFX+hHMdnQ9QWayteKdpC5gsBHCBSsHoQtTVVYsOQb0eOfnFj2X9SXxk6NhEj4Uj1dikrNhK6qCDakwTq6PxqOsH0/06ZXPyNw2YHrot1WL/TuB1y73P4rJNJUCdi5bSk2iy4ZG+HMnIKriqnT7Hs3Y+K1d/DM2QPy++JOIu/aFGlKw12vEMdcvKZhnuP8c6YPEJ0Knvfznz0L8VKv7+mb92coX8NHSLlAyR70yXB9RrWPf76OyFMlFGWiYr/ocvOeRqG5FMdWL/Z8WQx6E+k/scI9OOWjofXKsPI1TWplYhM+X/gV/hrAtClnyTksju5Po5hblOqRTONJ/0PFWxpyl6zAy0+NYVHiSy9MeHoZ3lz0KL4nelrj6x35MzeLEEjEdL7Pt3vnyC9QY8AszOu9R55mlVSjV/JMzBaH5ICJYX/8rmnYbHcAbT7K2+/gBAsFzzTNcxzYhBVS31bUiB4l/rtPN5YiT7wvrwIYnrHK87OhZ20ekK6fk4iJQyaIYx3gAbGyCGNFiJgy+T7fNohQycbAJQ+iZ1memEblsS8KK9LnPy8dlQKIBcwNFk7y8e1oGvgg0rOyxXFmogPDesehrL2A4fYbcepaLUbMFW1ChBCeXTqOd18pRH1yto+gkQPmsfgz2LTy9/ib6G3NNRXh4SB/08t/sLlHN8kvUIN9i+e5Xl9/kgVCDO6SvkDZaCIlkY1M8jVY35mDGXwx+PQqHBY9h8/mS0EyVLG+U1PiGtkcQHGtE71685XQmzi3GMdc4cCaTe6weEpqY+IMWAw1sLnXZwpx4U+laBk4TAohXdb9MLF/Jzb36GctKopqoBt8n2dkk/gVjNd64Jxo+nYHatkPjIn1f8o0KPoyHA09RIvcakJ7Cvv6Ybz9cuugYQHz1CIpYD5iAXPgJjMl7dyNPixs7A7F1CmonLga9PBSqbkRN8SuT1fqO1xnk9ZMVDjX0A/G6K9E6+b4NKm8sAQjTo7EqNV3iF5yqwltyHAiaGxDfsiC5n5M4QEzqLqLA4b7UuMQ0Esh5iGHWkgYotBT7EriojyjFK5vrFdbZ3av3kgK6tWdSvR3RMIXjIdmj0RZagk+D3DRmIS/0IcMx4Lm3Vc+YUHzKH4U9IDx/DFL6yA+Fmt9k6co8SOV6yStHcA/HEB8nB9rQJJNKK9j70tZijGiZ8yQKYhn05QdWp+F2n+KTZviYXGvsWRj4Nh4tJTtkKZTLWVn0WKwwjJRPsrXaCwjDGgqViwMV/eAo/dXGCSavn2DOJZNl+r9H5H4OwIikUV1yOgSMjF+8kMYPzqRfevpED+6k9fL8KBZ+nM8vSyYAbMJK0qqWVDIC8J8gXcn++NWi6/55FXEeBaU2fZuq8XXzUe3ombArLbH+aKx1MfPDvFFXL6fj+dE4PGF450OK+aJ981LvoSdez1rNNpZi4rl23FjxDyxIDwPlivbPdfQ8DWd90vR071gLC8Se52hEou6D3Q02lCzOEy6Jbp3iagztw7lM4Et7Zyi5lfsPtCQHtDaCp3CvrV1zXSJRJ4PBmDLl7XIWtN24YqHRJYpCesCXLyV1nxMXwd+xTAJaxQyRLUXF6XjsOk0tnldC9OMrJE6bHnKhALR4zceYE1VWFxYgnIfIUYiG02XCCGaopEMIURTERUyUdHRYo8QEiloJEMI0RSFDCFEUxQyhBBNUcgEwF1yQto6ug0htHi9GuVVxtrjZSSKkOy+JUFLj+Htae/hZbkMkMD7ViJXtAIzDi+P3Yi/TNuIPyaOE30kmPwImT6wSLcSiC01QfR3M4aleCIZipoz/hSW6gT2c98No0ALLR4E30f/cxvxilN0ST7Cn8+Z8cOxL2CS6PHXpMQncS+O4Te7nsSPqw+JXhJMqkNGlzAK0fV7cfCzT9lWhkbzCFgT+oij3YihL3o1n0FxGF4zJhfWClW949BxBcF7PkJgX/XT+MSZjqcDHIUMMurgrC/GPtEmwRfwxXi8oHgKynDw5HnRc3OdLb/JT2E3NjSIVteQnkYQdwZ5rW9u5DdIplxR9HuXAuXvewL52N97ofvO8DZPNPBZ+vNuRVlPJUX5Tj7KybCK+jy+ynYqS4MyvHCX1++ZivK9VzDR9RlexzvCp0vzoC/eDmS6ynvWoMJVMEvSqvSnsrSnVPYzCrblp2B2vYb9bK/SoNKUKAOXi59uNYpR0L+AP47ti6Jdy9m/Yf/kpm1EpuM9GsVoKIRrMp0vv9mV5PUOfve0nv1Re+6mbn2Xdkd6JS+U6g3L5TedXqUf2i/9Kcp67i1l4ayoBqgcsTSvwjPu17TG6wfPgpkFlvy+d3AC7Pf3KlmaiOkZfbFfOr4VNeyfb4YfT2QwZd4P5/tyRb6KC/FIdpf25E9QGAa7VKlPVO8b+GCrNRz2+pWu97PjXmUnmJhhSHKexd72AoZzFuO0MwFpMaJNwkpgIWMehxRzC2qq1I9iglF+syvJUxE5HKRveukPUlnjV4W6re7XH647g+ts6iWvbGlY+jN2JoYbqrHf/XsewFslLIwGpCrWd/ioyDX6kWvfmI3qw7Op6GFcELU5m8prAFHaU2qvV45q1sJ+AehpVtQPZjzvb3t8kt7Mfr3am0xnDsHG/m/pr/d3yjQOFvadcdFJoxgt+R8yujRYU82BFRYP6/KbXUnj0p/NV+DP10Gn1DZ6l/KcuEHUqZG35IGi360GdkXtmqb13s+L4msmapxztEBvbDupbA+fJv1l2pPsu+9JPHtJdBJN+BcyPGBGJwJVe3HaLvr8FbblN7uSxqU/3SMmgS9ei92g46U9XTWF+ZpLZjwbqbimS3w6Jb1KNR4eakgLuA5fz4nwLZ+Fyw92bWSz+I14m6ZZmlIfMoqAKT1/VXQGSNPym11IOf1xPz9JDRWlP5svwA7vpxuoIj2RQfl4FdfUbJsGp95Fac/KLxSjmWY+25GxUU3bkUzH9jnZt5k+7ianqAOd9gQ6zSL+UB0yUUm87CbLmqQMz7UyYVd+swvVL8XOOtezoBaiz2nfz19qz81Lf3qXFlVedOe+OFA6O+T6HVyBxReOt8KevFC8byGGOzxrQ8HgedbTPERVKp6/fW4xbBcMsPxEHB/byNryIdUunUKVPh0PdzTa0I9Fiv48jtO0JyxFVD2ZcDiFTUJvUuJ7eCH2LH5T/BufC8CdOQ1Np7C1F9jZJUJCaF/1RhyF7wvueAD9UO/7Qj01/F0wJv6jkCER4BBeKf4fXBz0ZJt7lx4eZMcn7Yxw1JACTP99undJQzRdIoRoikYyhBBNUcioRKU/CQkMhQwhRFMUMoQQTVHIEEI0RSFDOiUp+yWsfH2NvC2YKnqDhN/75L65coOnJk3QvYgbL+zB1/1Fk3s0Hc+uG4fJowHzgnFsPx3DxCEgBlnimBaUP2/Yskw8uyYRZvmQ5Nspe+CcoizVEd7Uh4x5nOJ2gm5cfpN4qSp8FcuXLUJBqUP0BNG5xTjGb6x8v9T7zu6gmoOvf/oQ/lmajzsviq4wd9uePfiO9ee4kSY6wpz6kLEfEqU3+bYXNfpuWn6T3FK+nZILJ75Arz2bRI9gu4ar7MilI+w/fTuvIXQNobo1SvnzLl1m+2zzLnrwGnpu+gL/zPwv/K/oCWedKr8Z7wjCHdl+6MqL8br+QsDByP7lfKQZRRPnsWvZb91Xuk5asAbTLKIBB47nv4rCSr7P3/c4UHgQ/XJnQH6J93uBqZj3uusY4yhFwRsfoko02/9sDz5tyok+iOXrdoseF+/Pbi5dj9Wt33wz7jKdygJYjNRvlW7clShLezK6rD8jfUSrRzd4vYZPk6bgtk1T/BzF8OnSYDTtrsPdUwdD+qptrsQfFlW7w4BPef41zXV5shPH3j+Ez1hgcXwKNOryIWxDuvs1tt1F2PInaVe1/330C3zV9O/Qtw7IMBPgmkwCzOYWNNhDFzDdmwiYKzukqYm8eUKC/4FP68uCQRwrKAXScn+mKI9gZO3xuJzPj6/HcUcCxmQPFsd4iMxAP/bH7/5sRcDc/LM7wn9v5WfvwGXrfMwL9NECXp5HMguYG+5aNXJpz/QsUVWPBdCQEeyP110WlPXx+sGKEEJaGq5fO43bA5om6ZE+tTc+X1CEtxccwjH2zzpzgQiV0YmYyHrelo4V4Q/HgfRHvddV+qSxEOpXKY47YWHvUR5X4/Yz1fh60Dh8K9rhyq+Q0SVkijWZEYiyn/G/Mh4JzKQZbATDRh9tRgncVEyzGmE75AmGqsIPpSBJVvwx23a6Rh+VOFrpgCHae03NMHgUksS+h7rPbpf0maUodI9cdmNXqQOW73Z+gViXdT9MLDRs7qp6a1FRVAPd4PvkkiQjhkDXfBZNyrKghij0lJuSb/kFlpf/EeA3LR+dHMMpsX+yyok+STFyUBypxpZ1bJoj2P9Wh6uG3mz8o8BHPq/LEzCfx9W42IA7e0ffWiHTcr7IvS5T6rgH40eneYaqRDNJMSY2S2mCTbTbcuCyqzBUAPatY6MbWJEjzhJ5jzQ68dlxJhiMns/lWw4LraC5Ut/ugnCLnU2sDENgGiS3TUPj2VTplNd061tT8H4XaR3FTY/JazLx7Dqx/URMqRSuVl3yrLOwUCpY4AosP1z8B74DFjLKs2JhKMDpEv8/8SJadAbtyjgSt6pLXisRPhjRL07sShLAnz6jXiUK3xBTpfxS9JuuDJpOfjZf3xFTLffmc0QWgL6xXl9yOrPiJLdUa9hTMCt5YA0qlFMl5ram4J0RM5vZVEks0A5bNg7p7N/pH8R06e33K6HJwkL/u/BPNOC2MD8rFnDISJXy7LVoFG2ioX3lsLERQbZiHcVjNyrYEMcy7nH3dCcpezws7I97VyD1Dyov4rLY7fRnd/h7e/CF5bYjqI61lJ1Fi9fjU56HZYQBTcXyM5tM06xAWZ67tnBx60Vj5ja+kN/vriBMN2IwMU0P2xnF+Sf3GSE2qnm07UgmKPpH4+trLGREM1ypPrvE12OsSYrvDbt/D3YLhu59dqnVGaAOzy4pj8mLxv0OLUKeeLH3maDWn9v2DNDNPttzxkuw7VCMVtp+vm2n53fhXJ/fut/n2SHlw+NanV1qYaHiLv3Z+syTpPWD5/jZpYeAovvQ87joUoWfXUr3/mdSnh0anYgcxRTJdrwSvdP4IrE8JXKdXSpQrNsEIlLOLlE9GZW6PmSIP0zzi2BpUIQOw/uS4X2am189e3XQafT53b+F/YjAS///gHNONHr85ke4XXSFq4j690qIOtnQ9RW7bs/DPJCNdhq8l89v25PPJjT34XoEXaYvjcDm3IfvFIV/wHA0klGJRjIRxsd0yWs65SXQi/K6Bh99XQcLxzCfJrlQyKhEIUNIYGi6RAjRFIWMSjSKISQwFDKEEE1RyBBCNEUhQwjRFIWMH/hzk/mTBv+S9pjoIYTcTAAh0weW0bzcQyYs3tds3/Lyjz+JH+x6T3qs6dt+35dPSPfkd8joEkYh3mnvxjdGHsLe+hb019NzkwlRw7+Q0aUhOQmoqepE8RJCSLfiR8iwadLwRKDqc6qIRwhRTX3ImIchHtWoCGHh8HC1j00X9bFjVda5JaR7UxkyCUhJ1aPmxHENn38TQS4txw/O9cUL0zbij4m0NkNIR9TdIMkf7JbaTi31EBavCpebFCclvocXjHvxg+MfiR5CSHsCvAubjWwm3wPnkaKQrs+EU8g8jY34cfUh0UMIaY/fp7AJIcQfAYbMeZz+LLSjGEJIZKKRjN/GISNWh4tOmioRogaFjB/ke5eexr04hj+H6unrhEQ4Kr9JCNEUjWQIIZqikCGEaIpChhCiKQoZQoimKGQIIZqikOn2+APxX0L2YNEkJMjUh4wuDdbJvOymYktNEAeJKrGrkJ+xFGNEk5DuwL+RTEs1Sj/7FAddW4juviaERC71F+PxkcxwoOJI19WU6dqL8SbguYyF6HN6NsrjNmP6AN7nxIm9uXirWXqBPFIZmSgaimOGpXg3w4pe8gGFauzcthSbFZ+9ol4+MmZIPub13oPco5vE+/ti/7aTGDpzFuL5C5pLkbd3FQ6L1z6BfOzvvVD8XkBNieezOsanS+NxeWclkqZbYeBdjlIUvPEhqqTjzKSfYeV0z6jVtnMR8vbJ+5MWrMGYhvUoxOPIsRqlPuVxQmhNxk/xIzdj4rV3kLttNnbW6TE8eY58gAfByBgWLLOlY7kllzA8YxVm82PNq/CM1FcthwPflzYeMGolYvrMKbgqff5W1BismBErDjG9khe6f6+8CifiU/yZlhmRNt2Ew8sWYfmy9TgOK7LdizQshL5bzvr5MbbtPA/L9J95VQU0WOcjJ/qgdLyg1AHLuMeRJI4R4l/I6BIV6zLjECW6u5W6rXjm7AFpd3MtCw3jQOmPecyAe9gwL98zqqnfhhPNiRiqCILOqilxjZo2obwOMBsnSP0Sxe91uO4Mrhv6Qv2KmQPH838LefBRiaOVDhgGjxJBsRt563ZLe5J95bDBhBjlQjEf+YjXVJVWotlogkVqEeJPyLQc91qPKa3SI6UbBk1NLZu+uNQvRa6YsiT01kujifyZm8W2EMOluUewVKNcMf3ZfHS2O1SCrepSk9iT8SnRytdd24w2AdJc+blnalX5IVYvcwUWIZ2YLrXYL1K931auV8jTFeWmbl0kvCTFmIArF6XgSMp+CdMs57HLNV1atoONZAhRL8CQkR+PorPXduOHvHnjU6deybl4rqPRS/MVNo25B2PbeY17+hO7CvOS9fJ+yE3FNKsRtr8rpkiOJnewTFrQdiRDSEdUh4wuIVNxjUwGouv30ilsJT51khZ7XdMlvomFX5fmVfh9BRSvcR0/gLdKSgHXdCvlCnZWOKUjoWFEWq5nOgTF2aGqwoOwGa3IEdOlMQ2lNJIhfqF6MoQQTQW8JkMIIWpQyBBCNEUhQwjRFIUMIURTERUytOhLSOShkQwhRFMUMoQQTVHIEEI0FXEhk7PkHMoLS1C+oQk5oo8QEr78vuI3KvUhpJhFw17WZbcWvLamBA80pGPU6jtEDyEkHPkRMn1gGZ2BeGfXBYuXuXUoTzVi6KKg1lMghASZ+umSeVj4BAwhJGKoDpmo/ma0OPogxX0ntmLaRAgh7VAZMn2g0wO6JAPs7icV2BGVmgmLTrwk1Kp7wHG3A6+JJiEkPPl1dqnx5CFPkSr7KdS06KDvqtpK+00Y9U4PPMDPNK1xFdYlhIQblSFzFS1OoJeuj2iHAb7wOxdYlz2SFn8JCWOqRzKNF+1sujTMUzicLwTr7LDbRbsrNN2JArFLCAlP6qdL9kPiCQVi4TcVOP2ZYvpECCE+RFT5TS90nQwhEcGvhd9w8lpqLRwNPUSLEBKuIi5kXPcuZd0dh7/SLQWEhL3InS4RQiJCxE6XCCGRgUKGEKIpChlCiKYoZAghmqKQIYRoikKGEKIplaewRVW8NmUdWlBzpAi2FtEkhJBWAr9OxjyO7l8ihNxUwNMlqVJe1SkKGEJIhwILGV0a4s121Jy/KjoIIcS3gEImKikRoFEMIUQF/0NGGsW0oMFOoxhCyM35HTJ8FKOzn6EzSoQQVfwLGTGKqamiZy8RQtTxI2T6wDKcRjGEEP9QPRlCiKYCOrtECCFqUcgQQjRFIUMI0RSFDCFEUxQyhBBNUcgQQjRFIUMI0RSFDCFEU3QxXgCSsl9CjtUoWuexa9lvsU+0utbzSF75IEyi1VKWh2NbCkUrGL5BwYZjMO8fiZkfiC40Y1uhA2XZA/Ci6CFEya+QiUp9CClm0WAaT36K03bR6C4GP44luYNRlf8qCitFX5gwzS9CMrajeP1a0RNcr60pQRZSMHSRQfTI+KODF9/TD28+ZUKB6CPERfV0SZeQyf7zKsPBzz6Vt5N2FjrjECWOdxtxJhgclTgaZgEDZEPXF2gq1yZgMLdOev74llYBwxWsHoQtTVVYsOQb0UOIh+qQ6WXUocVxRbQYZzNCfp9k7Crkz1yF2aIpadM3BytmbmZ9Yrt3juhnDEvxrvRaxWsylmKMOKxGUoxrMtLKpJ9h5YKp0lRq5etrpG1J9mBxMBQs0Lf9+xf4NKoIY13bkjfhVRN+0JtIVx6f/7w44MKmSRNrcW5b+1OiF7cmASMb8JpoE+KiOmQaL9qhS8oQ0yXXHdm1oa2OV38SNUjE0FjRZsYYY4C6k9gs2rPvTUX5ttnIlbatqBkwCysUrwd7//SZU3B1rzhusGKG13HfJi2Qg0NaizFakeMrSCwzkBN9EMuXLcLynedhsM7AJHFIM+6AkNdiTJmusNgg1mayMXDJg+hZlofi5Zlsy4MNVqS7g4QF0E+suFHEj/FtO5oGPoj0rGxxnJnowLDecShzr8P4sN+IU9dqMWKuaBMiqD+7ZD/EpkllQOpDGD85A9H1e9mUKdR1ZTZhR4UT8XGu0ckEjI0DTlRsEm1g89Gl7sDhry+vA8zGCaItqynJxVvNfM/3cV/2rWPBwcKjoNQBOEpRwIOEbauVCzO8f91ueX9fOftjNiFG1WBmFuLeXIu01tvyn+JO8Yp2nVuMY65wYM0md1g8JbUxcQYshhrY3AvAhbjwp1K0DBwmhZAu636Ymkth2y8fBdaioqgGusH3eUY7iV/BeK0Hzommb3eglv3AmFiaMhFv6kOGPwJl8j1wHuFrMmW4zkY140eneQ+7Q+Bw3RlcH5AqT48MEzAYZ1AsBYYgTZ8806XpA0S/WzXK68Uus/nobDxz9oBodZWtqF38PI633lb+Dl+LV3RKcyNuiF2frtR3OPXNiVU3MT7X0A/G6K9EixCZypBh06Mk/giUz0XBqvM4zYKmUZeIeMXZppBoPoDKZnnKNGbAPUDtARwWh6Q1l5GJbKTimi7Nxk42Ugl/nRjJqGGIQk+xK4mL8v5y6Bvr1daZvdedCurVfZUMir4MR0MP0SJEpn4kw+iMfcUeY45DFPv+czpFO2QOoLjWyaY4c9hU6RL2txmFOHHVNbJho5q2I5lwpOFIZv8pNm2Kh8W9xpKNgWPj0VK2Q5pOtZSdRYvBCstE+Shfo7GMMKCpeLFndFPdA47eX2GQaPr2DT/xhkv1d4g2ITKVIXMVtiNs5GIewaZMfE2Gban6LntE7eGze2BPnoXhDs+Cr6R5FfbX6TE8Q0yXUq7gRESMZLS0FhXLt+PGiHliQXgeLFe2ey7S42s675eip3vBWF4krnCv0TBiUfeBjk5Rq1kcJt0SXfFL1Jlbh/KZwJZ2ruzlF+o90JCOUatpJEO8+TVdIt3YBwOw5ctaZK1RrrLL+BW/WaYkrKOAIT5QyBDVXlyUjsOm09jmdS1MM7JG6rCFbikg7aDpEiFEUzSSIYRoKqJGMrff4XW1ByEkAtBIhhCiKQoZQoimKGQIIZqK3JCZsA73vbRVbB/hriTRr9rX+M/1B/DpE6IpceDTD214RbQIIZ3n18Ivr6kyzSIavKzBGx+iSjRDwbPwuxCDX3oA2DMLlQHeQP3KGwfwCNIx/JeuWr2yub8oxy+GROPX882gK+QJ6TzVIxle8W1aX08dlV1XrMhZMFUcDbGkWPTEBTQGWqHhCRseSUjAx60Chvvg10PxcVMF5v8iKEUWCOn2VIbMVEyzGmE75Bm57CsqRbNlqPaV33y5y4ReYtcbH+GsQ7+kXyHVNZV64VetXsumSRPOo2q7BS+LntZe/u9k4HsXadpESBD4sSbjwOVasctVXsRl1ZXfgqPXDz+Sg2PKQNYayAJFBMlTC+UXSFj/HBNqX52FL179Ky7r0xCnLHw34Sq+a0xA2e9F25cDffB3x3mM8FqvIYQEQmXI7EaFzYi0TM/0aNKCGXAtz4TK9U8eY8HBwmPPBda6gEopSNi24R35BRInajctYAHIvYNGFow9ox+WWpLEGzA6et5kLelOqZSkuT9NmQjpLNUjmX3rdsBmmeGuxJ/8d9ZGEy6F3aNBOja3f9u7iH2paoyCMYpKSRLSWX5Ml3YjTyz68i2vtj/6OZpY0ESWDy62+9wQL0lRjXA0UilJQjrLj5BRcD1FsTC0p7CDoronHMYb6Piymq+lUpL2i0GpsEtIt6Y6ZJQPLVuZa8LhZeH3mFZVxKJuZkenqNUsDhNCVOmed2E/YcOJB4GPH/d9GptfqJfZOArjfk0jGUI6K7DpUqT7vQUfnz+PR95wiA4PfsXvI6ZkrKeAISQoumfIMC//chSOmI61uXfpke8Z8DHdUkBI0FDRKkKIprrtSIYQEhpUSJwQoikayRBCNEUhQwjRFIUMIURTFDKEEE1RyBBCNEUhQwjRFIUMIURTFDKEEE1RyBBCNEUhQwjRFIUMIURDwP8DS3eHKKKGw74AAAAASUVORK5CYII=;" vertex="1" parent="1">
                    <mxGeometry x="190" y="350" width="170.78" height="110" as="geometry"/>
                </mxCell>
                <mxCell id="3" value="" style="rounded=0;whiteSpace=wrap;html=1;" vertex="1" parent="1">
                    <mxGeometry x="60" y="60" width="120" height="330" as="geometry"/>
                </mxCell>
                <mxCell id="4" value="&lt;font style=&quot;font-size: 15px;&quot;&gt;ECStack调用栈&lt;/font&gt;" style="text;strokeColor=none;fillColor=none;html=1;fontSize=24;fontStyle=1;verticalAlign=middle;align=center;" vertex="1" parent="1">
                    <mxGeometry x="60" y="20" width="100" height="40" as="geometry"/>
                </mxCell>
                <mxCell id="5" value="" style="rounded=0;whiteSpace=wrap;html=1;fontSize=15;" vertex="1" parent="1">
                    <mxGeometry x="380" y="90" width="390" height="300" as="geometry"/>
                </mxCell>
                <mxCell id="6" value="&lt;font style=&quot;font-size: 15px;&quot;&gt;堆内存&lt;/font&gt;" style="text;strokeColor=none;fillColor=none;html=1;fontSize=24;fontStyle=1;verticalAlign=middle;align=center;" vertex="1" parent="1">
                    <mxGeometry x="390" y="50" width="100" height="40" as="geometry"/>
                </mxCell>
                <mxCell id="8" value="GO对象" style="text;html=1;strokeColor=none;fillColor=none;align=center;verticalAlign=middle;whiteSpace=wrap;rounded=0;fontSize=15;" vertex="1" parent="1">
                    <mxGeometry x="390" y="100" width="60" height="30" as="geometry"/>
                </mxCell>
                <mxCell id="9" value="String&lt;br&gt;setTimeout&lt;br&gt;window&lt;br&gt;foo: 0xa00&lt;br&gt;fn: 0xb00" style="rounded=0;whiteSpace=wrap;html=1;fontSize=15;" vertex="1" parent="1">
                    <mxGeometry x="390" y="130" width="120" height="100" as="geometry"/>
                </mxCell>
                <mxCell id="10" value="&lt;font style=&quot;font-size: 11px;&quot;&gt;bar对象对象0xb00&lt;/font&gt;" style="text;html=1;strokeColor=none;fillColor=none;align=center;verticalAlign=middle;whiteSpace=wrap;rounded=0;fontSize=15;" vertex="1" parent="1">
                    <mxGeometry x="515" y="250" width="100" height="30" as="geometry"/>
                </mxCell>
                <mxCell id="11" value="" style="rounded=0;whiteSpace=wrap;html=1;fontSize=11;" vertex="1" parent="1">
                    <mxGeometry x="530" y="280" width="70" height="30" as="geometry"/>
                </mxCell>
                <mxCell id="12" value="" style="rounded=0;whiteSpace=wrap;html=1;fontSize=11;" vertex="1" parent="1">
                    <mxGeometry x="70" y="300" width="100" height="80" as="geometry"/>
                </mxCell>
                <mxCell id="13" value="VO: GO" style="rounded=0;whiteSpace=wrap;html=1;fontSize=11;" vertex="1" parent="1">
                    <mxGeometry x="80" y="310" width="80" height="30" as="geometry"/>
                </mxCell>
                <mxCell id="14" value="开始执行代码&lt;br&gt;var fn = 0xb00" style="rounded=0;whiteSpace=wrap;html=1;fontSize=11;" vertex="1" parent="1">
                    <mxGeometry x="80" y="350" width="80" height="30" as="geometry"/>
                </mxCell>
                <mxCell id="15" value="GEC(全局执行上下文" style="text;html=1;strokeColor=none;fillColor=none;align=center;verticalAlign=middle;whiteSpace=wrap;rounded=0;fontSize=11;" vertex="1" parent="1">
                    <mxGeometry x="70" y="270" width="110" height="30" as="geometry"/>
                </mxCell>
                <mxCell id="16" value="" style="rounded=0;whiteSpace=wrap;html=1;fontSize=11;" vertex="1" parent="1">
                    <mxGeometry x="70" y="185" width="100" height="80" as="geometry"/>
                </mxCell>
                <mxCell id="17" value="VO: GO" style="rounded=0;whiteSpace=wrap;html=1;fontSize=11;" vertex="1" parent="1">
                    <mxGeometry x="80" y="195" width="80" height="30" as="geometry"/>
                </mxCell>
                <mxCell id="18" value="开始执行代码" style="rounded=0;whiteSpace=wrap;html=1;fontSize=11;" vertex="1" parent="1">
                    <mxGeometry x="80" y="235" width="80" height="20" as="geometry"/>
                </mxCell>
                <mxCell id="19" value="FEC(函数执行上下文" style="text;html=1;strokeColor=none;fillColor=none;align=center;verticalAlign=middle;whiteSpace=wrap;rounded=0;fontSize=11;" vertex="1" parent="1">
                    <mxGeometry x="70" y="155" width="110" height="30" as="geometry"/>
                </mxCell>
                <mxCell id="20" value="AO对象" style="text;html=1;strokeColor=none;fillColor=none;align=center;verticalAlign=middle;whiteSpace=wrap;rounded=0;fontSize=15;" vertex="1" parent="1">
                    <mxGeometry x="515" y="100" width="60" height="30" as="geometry"/>
                </mxCell>
                <mxCell id="21" value="bar: 0xb00" style="rounded=0;whiteSpace=wrap;html=1;fontSize=15;" vertex="1" parent="1">
                    <mxGeometry x="515" y="130" width="95" height="100" as="geometry"/>
                </mxCell>
                <mxCell id="22" value="&lt;font style=&quot;font-size: 11px;&quot;&gt;foo对象对象0xa00&lt;/font&gt;" style="text;html=1;strokeColor=none;fillColor=none;align=center;verticalAlign=middle;whiteSpace=wrap;rounded=0;fontSize=15;" vertex="1" parent="1">
                    <mxGeometry x="410" y="250" width="100" height="30" as="geometry"/>
                </mxCell>
                <mxCell id="23" value="" style="rounded=0;whiteSpace=wrap;html=1;fontSize=11;" vertex="1" parent="1">
                    <mxGeometry x="420" y="280" width="70" height="30" as="geometry"/>
                </mxCell>
                <mxCell id="24" value="AO对象" style="text;html=1;strokeColor=none;fillColor=none;align=center;verticalAlign=middle;whiteSpace=wrap;rounded=0;fontSize=15;" vertex="1" parent="1">
                    <mxGeometry x="640" y="100" width="60" height="30" as="geometry"/>
                </mxCell>
                <mxCell id="25" value="" style="rounded=0;whiteSpace=wrap;html=1;fontSize=15;" vertex="1" parent="1">
                    <mxGeometry x="640" y="130" width="95" height="100" as="geometry"/>
                </mxCell>
            </root>
        </mxGraphModel>
    </diagram>
</mxfile>